<svg width="348" height="78" viewBox="0 0 348 78" fill="none" xmlns="http://www.w3.org/2000/svg">
<path d="M337.702 39.6274C341.008 39.6274 343.558 41.0903 345.352 44.016C347.178 46.9417 348.06 51.0012 347.997 56.1943H330.996C331.311 58.4252 331.987 60.2172 333.026 61.5703C334.065 62.8869 335.419 63.5452 337.088 63.5452C339.292 63.5452 342.456 62.2652 346.58 59.7052L347.997 62.832L340.819 69.4697C338.961 70.0183 336.804 70.2926 334.349 70.2926C332.05 70.2926 329.973 69.6709 328.115 68.4274C326.289 67.1474 324.856 65.4103 323.817 63.216C322.81 61.0217 322.306 58.5897 322.306 55.92C322.306 53.0309 323.109 50.3429 324.715 47.856C326.32 45.3326 328.32 43.3394 330.712 41.8766C333.137 40.3772 335.466 39.6274 337.702 39.6274ZM335.104 45.9909C333.719 45.9909 332.68 46.5394 331.987 47.6366C331.295 48.6972 330.917 50.3429 330.854 52.5737H339.874C339.622 50.3063 339.15 48.6423 338.457 47.5817C337.796 46.5212 336.663 45.9909 335.057 45.9909H335.104Z" fill="#59AA7E"/>
<path d="M315.007 69.8537C313.937 70.1462 312.661 70.2925 311.182 70.2925C308.159 70.2925 305.94 69.5062 304.523 67.9337C303.138 66.3245 302.445 63.856 302.445 60.528V45.4422H297.345V42.5348L307.498 29.6982H310.473V41.8217H318.974V45.4422H310.473V60.144C310.473 62.6674 311.701 63.9291 314.157 63.9291C314.787 63.9291 315.401 63.8194 315.999 63.6C316.628 63.344 317.416 62.9234 318.36 62.3382L319.777 65.4651L315.007 69.8537Z" fill="#59AA7E"/>
<path d="M294.934 69.744H284.167V64.9714L278.831 69.8537C278.201 70.1463 277.414 70.2926 276.469 70.2926C273.447 70.2926 271.259 69.4332 269.905 67.7143C268.583 65.9954 267.922 63.9292 267.922 61.5154C267.922 60.0892 268.299 58.6994 269.055 57.3463C269.811 55.9566 270.897 54.6766 272.313 53.5063H284.167V52.5737C284.167 50.5623 283.695 49.0812 282.75 48.1303C281.806 47.1794 280.546 46.704 278.972 46.704C276.768 46.704 273.888 47.7097 270.33 49.7212L268.913 46.5943L275.478 40.4503C277.083 39.9017 278.957 39.6274 281.097 39.6274C284.624 39.6274 287.347 40.56 289.267 42.4252C291.219 44.2903 292.195 46.9966 292.195 50.544V64.2583L296.446 66.1783L294.934 69.744ZM278.878 62.9417C280.483 62.9417 282.247 62.1737 284.167 60.6377V57.1269H276.564C276.312 57.5657 276.123 57.9863 275.997 58.3886C275.903 58.7543 275.855 59.1749 275.855 59.6503C275.855 60.5646 276.123 61.3326 276.658 61.9543C277.225 62.576 277.965 62.8869 278.878 62.8869V62.9417Z" fill="#59AA7E"/>
<path d="M263.494 69.7441H252.726V51.5315C252.726 50.0321 252.522 48.9898 252.113 48.4046C251.735 47.7829 251.026 47.4721 249.987 47.4721C248.445 47.4721 246.933 48.0938 245.454 49.3372V64.6424L249.421 66.1784L247.909 69.7441H237.425V51.5315C237.425 50.0321 237.221 48.9898 236.811 48.4046C236.434 47.7829 235.725 47.4721 234.686 47.4721C233.144 47.4721 231.648 48.0938 230.2 49.3372V64.6424L234.12 66.1784L232.608 69.7441H217.969V66.6721L222.172 62.5578V50.1052L217.969 47.0332V43.9612L227.791 39.1338L229.633 45.4972L235.3 40.0664C236.056 39.7738 236.922 39.6275 237.898 39.6275C239.755 39.6275 241.314 40.1395 242.573 41.1635C243.864 42.1509 244.73 43.5224 245.17 45.2778L250.649 40.0664C251.404 39.7738 252.27 39.6275 253.246 39.6275C255.544 39.6275 257.37 40.3955 258.724 41.9315C260.109 43.4309 260.802 45.4789 260.802 48.0755V64.5326L265.005 66.1784L263.494 69.7441Z" fill="#59AA7E"/>
<path d="M201.237 39.6274C203.567 39.6274 205.645 40.2674 207.471 41.5474C209.297 42.7909 210.714 44.5097 211.721 46.704C212.76 48.8983 213.279 51.3303 213.279 54C213.279 56.8892 212.477 59.5954 210.871 62.1189C209.265 64.6057 207.25 66.5989 204.826 68.0983C202.433 69.5612 200.119 70.2926 197.884 70.2926C195.586 70.2926 193.508 69.6709 191.65 68.4274C189.824 67.1474 188.392 65.4103 187.353 63.216C186.345 61.0217 185.842 58.5897 185.842 55.92C185.842 53.0309 186.644 50.3429 188.25 47.856C189.856 45.3326 191.855 43.3394 194.248 41.8766C196.672 40.3772 199.002 39.6274 201.237 39.6274Z" fill="#59AA7E"/>
<path d="M183.24 43.2481L171.15 69.7441H165.2L158.163 49.8858L153.582 46.8138V43.7418L164.019 39.1338L165.814 47.4172L170.961 62.0092L176.675 49.0629L169.922 43.7418L171.433 40.1761H183.24V43.2481Z" fill="#59AA7E"/>
<path d="M151.639 69.7441H140.919V52.1898C140.919 50.4709 140.683 49.2641 140.211 48.5692C139.77 47.8378 138.983 47.4721 137.849 47.4721C136.181 47.4721 134.528 48.0938 132.891 49.3372V64.5326L137.141 66.1784L135.583 69.7441H120.659V66.6721L124.862 62.5578V50.1052L120.659 47.0332V43.9612L130.482 39.1338L132.324 45.4972L138.18 40.0664C139.03 39.7738 139.99 39.6275 141.061 39.6275C143.454 39.6275 145.358 40.3955 146.775 41.9315C148.223 43.4309 148.947 45.4789 148.947 48.0755V64.5326L153.198 66.1784L151.639 69.7441Z" fill="#59AA7E"/>
<path d="M115.661 69.6892H98.9432V66.6172L103.382 62.2835V31.8927L98.1403 30.1372L99.6988 26.5715H116.417V29.6435L111.93 34.0321V64.423L117.172 66.1235L115.661 69.6892Z" fill="#59AA7E"/>
<rect y="60.4287" width="20.2922" height="17.5714" rx="5" fill="#514F4F"/>
<rect y="60.4287" width="20.2922" height="17.5714" rx="5" stroke="white"/>
<rect x="22.1368" y="60.4287" width="20.2922" height="17.5714" rx="5" fill="#514F4F"/>
<rect x="22.1368" y="60.4287" width="20.2922" height="17.5714" rx="5" stroke="white"/>
<rect x="66.4107" y="60.4287" width="20.2922" height="17.5714" rx="5" fill="#514F4F"/>
<rect x="66.4107" y="60.4287" width="20.2922" height="17.5714" rx="5" stroke="white"/>
<rect x="22.1368" y="40.7144" width="20.2922" height="17.5714" rx="5" fill="#514F4F"/>
<rect x="22.1368" y="40.7144" width="20.2922" height="17.5714" rx="5" stroke="white"/>
<rect x="66.4107" y="40.7144" width="20.2922" height="17.5714" rx="5" fill="#514F4F"/>
<rect x="66.4107" y="40.7144" width="20.2922" height="17.5714" rx="5" stroke="white"/>
<rect x="44.2737" y="40.7144" width="20.2922" height="17.5714" rx="5" fill="#514F4F"/>
<rect x="44.2737" y="40.7144" width="20.2922" height="17.5714" rx="5" stroke="white"/>
<rect x="44.2737" width="20.2922" height="17.5714" rx="5" fill="#514F4F"/>
<rect x="44.2737" width="20.2922" height="17.5714" rx="5" stroke="white"/>
<rect x="66.4107" y="21" width="20.2922" height="17.5714" rx="5" fill="#514F4F"/>
<rect x="66.4107" y="21" width="20.2922" height="17.5714" rx="5" stroke="white"/>
<rect x="44.2737" y="40.7144" width="20.2922" height="17.5714" rx="5" fill="#514F4F"/>
<rect x="44.2737" y="40.7144" width="20.2922" height="17.5714" rx="5" stroke="white"/>
<rect x="44.2737" y="21" width="20.2922" height="17.5714" rx="5" fill="#514F4F"/>
<rect x="44.2737" y="21" width="20.2922" height="17.5714" rx="5" stroke="white"/>
<rect x="44.2737" y="60.4287" width="20.2922" height="17.5714" rx="5" fill="#514F4F"/>
<rect x="44.2737" y="60.4287" width="20.2922" height="17.5714" rx="5" stroke="white"/>
</svg>
